# 3ds Max Wavefront OBJ Exporter v0.97b - (c)2007 guruware
# File Created: 17.02.2013 18:56:13

mtllib seina.mtl

#
# object Plane003
#

v  50.0102 55.1809 4.9498
v  50.0102 55.1809 -4.9498
v  50.0102 26.4214 -4.9498
v  50.0102 26.4214 4.9498
v  50.0102 55.1809 40.0000
v  50.0102 55.1809 34.8373
v  50.0102 26.4214 34.8373
v  50.0102 26.4214 40.0000
v  30.0000 90.0000 -40.0000
v  50.0102 74.7000 -40.0000
v  50.0102 74.7000 -34.8373
v  30.0000 90.0000 -34.8373
v  58.6088 46.2799 34.7820
v  58.6088 46.2799 5.0052
v  58.6088 35.3224 5.0052
v  58.6088 35.3224 34.7820
v  50.0102 74.7000 -4.9498
v  30.0000 90.0000 -4.9498
v  30.0000 90.0000 4.9498
v  50.0102 74.7000 4.9498
v  30.0000 90.0000 40.0000
v  30.0000 90.0000 34.8373
v  50.0102 74.7000 34.8373
v  50.0102 74.7000 40.0000
v  50.0102 26.4214 -40.0000
v  50.0102 26.4214 -34.8373
v  50.0102 55.1809 -34.8373
v  50.0102 55.1809 -40.0000
v  58.6088 35.3224 -34.7819
v  58.6088 35.3224 -5.0052
v  58.6088 46.2799 -5.0052
v  58.6088 46.2799 -34.7819
v  40.0000 0.0000 -4.9498
v  40.0000 0.0000 4.9498
v  40.0000 0.0000 34.8373
v  40.0000 0.0000 40.0000
v  40.0000 0.0000 -40.0000
v  40.0000 0.0000 -34.8373
v  50.0102 63.5779 -3.8940
v  50.0102 70.8824 -3.8940
v  50.0102 63.5779 3.8940
v  50.0102 70.8824 3.8940
v  44.7887 67.3424 -2.6182
v  44.7887 67.3424 2.6182
v  56.6354 41.7897 4.6379
v  59.1021 43.2138 4.6379
v  59.1021 43.2138 35.4885
v  56.6354 41.7897 35.4885
v  59.1021 46.0620 4.6379
v  56.6354 47.4861 4.6379
v  56.6354 47.4861 35.4885
v  59.1021 46.0620 35.4885
v  54.1688 46.0620 4.6379
v  54.1688 46.0620 35.4885
v  54.1688 43.2138 4.6379
v  54.1688 43.2138 35.4885
v  55.2307 33.5928 4.6379
v  59.0019 35.7701 4.6379
v  59.0019 35.7701 35.4885
v  55.2307 33.5928 35.4885
v  59.0019 40.1247 4.6379
v  55.2307 42.3020 4.6379
v  55.2307 42.3020 35.4885
v  59.0019 40.1247 35.4885
v  51.4596 40.1247 4.6379
v  51.4596 40.1247 35.4884
v  51.4596 35.7701 4.6379
v  51.4596 35.7701 35.4884
v  54.2167 30.9430 4.6379
v  55.5632 31.7204 4.6379
v  55.5632 31.7204 35.4885
v  54.2167 30.9430 35.4885
v  55.5632 33.2753 4.6379
v  54.2167 34.0527 4.6379
v  54.2167 34.0527 35.4885
v  55.5632 33.2753 35.4885
v  52.8701 33.2753 4.6379
v  52.8701 33.2753 35.4885
v  52.8701 31.7204 4.6379
v  52.8701 31.7204 35.4885
v  56.6354 41.7897 -35.4329
v  59.1021 43.2138 -35.4329
v  59.1021 43.2138 -4.5823
v  56.6354 41.7897 -4.5823
v  59.1021 46.0620 -35.4329
v  56.6354 47.4861 -35.4329
v  56.6354 47.4861 -4.5823
v  59.1021 46.0620 -4.5823
v  54.1688 46.0620 -35.4329
v  54.1688 46.0620 -4.5823
v  54.1688 43.2138 -35.4329
v  54.1688 43.2138 -4.5823
v  55.2307 33.5928 -35.4329
v  59.0019 35.7701 -35.4329
v  59.0019 35.7701 -4.5823
v  55.2307 33.5928 -4.5823
v  59.0019 40.1247 -35.4329
v  55.2307 42.3020 -35.4329
v  55.2307 42.3020 -4.5823
v  59.0019 40.1247 -4.5823
v  51.4596 40.1247 -35.4329
v  51.4596 40.1247 -4.5823
v  51.4596 35.7701 -35.4329
v  51.4596 35.7701 -4.5823
v  54.2167 30.9430 -35.4329
v  55.5632 31.7204 -35.4329
v  55.5632 31.7204 -4.5823
v  54.2167 30.9430 -4.5823
v  55.5632 33.2753 -35.4329
v  54.2167 34.0527 -35.4329
v  54.2167 34.0527 -4.5823
v  55.5632 33.2753 -4.5823
v  52.8701 33.2753 -35.4329
v  52.8701 33.2753 -4.5823
v  52.8701 31.7204 -35.4329
v  52.8701 31.7204 -4.5823
# 116 vertices

vn -1.0000 -0.0000 -0.0000
vn -0.6074 -0.7944 -0.0000
vn -1.0000 0.0000 -0.0000
vn -0.9351 0.3543 -0.0000
vn -0.0064 0.0000 -1.0000
vn -0.7192 -0.6948 -0.0000
vn -0.0064 0.0000 1.0000
vn -0.7192 0.6948 -0.0000
vn -0.0064 -0.0000 -1.0000
vn -1.0000 -0.0000 0.0000
vn -0.2373 -0.0000 -0.9714
vn -0.2373 0.0000 0.9714
vn -0.5612 0.8277 -0.0000
vn -0.5848 -0.8112 -0.0000
vn -0.0000 -1.0000 -0.0000
vn 0.5000 -0.8660 -0.0000
vn 0.5000 0.8660 0.0000
vn 0.0000 1.0000 0.0000
vn -0.8660 0.5000 -0.0000
vn -0.8660 -0.5000 -0.0000
vn 0.0000 -1.0000 -0.0000
vn 0.5000 -0.8660 0.0000
vn -0.0000 1.0000 0.0000
vn -0.8660 0.5000 0.0000
# 24 vertex normals

vt 0.5619 0.6131 0.0000
vt 0.4381 0.6131 0.0000
vt 0.4381 0.2936 0.0000
vt 0.5619 0.2936 0.0000
vt 1.0000 0.6131 0.0000
vt 0.9355 0.6131 0.0000
vt 0.9355 0.2936 0.0000
vt 1.0000 0.2936 0.0000
vt 0.0000 1.0000 0.0000
vt 0.0000 0.8300 0.0000
vt 0.0645 0.8300 0.0000
vt 0.0645 1.0000 0.0000
vt 0.9107 0.5142 0.0000
vt 0.5866 0.5142 0.0000
vt 0.5866 0.3925 0.0000
vt 0.9107 0.3925 0.0000
vt 0.4381 0.8300 0.0000
vt 0.4381 1.0000 0.0000
vt 0.5619 1.0000 0.0000
vt 0.5619 0.8300 0.0000
vt 1.0000 1.0000 0.0000
vt 0.9355 1.0000 0.0000
vt 0.9355 0.8300 0.0000
vt 1.0000 0.8300 0.0000
vt 0.0000 0.2936 0.0000
vt 0.0645 0.2936 0.0000
vt 0.0645 0.6131 0.0000
vt 0.0000 0.6131 0.0000
vt 0.0933 0.3925 0.0000
vt 0.4093 0.3925 0.0000
vt 0.4093 0.5142 0.0000
vt 0.0933 0.5142 0.0000
vt 0.4381 0.0000 0.0000
vt 0.5619 0.0000 0.0000
vt 0.9355 0.0000 0.0000
vt 1.0000 0.0000 0.0000
vt 0.0000 0.0000 0.0000
vt 0.0645 0.0000 0.0000
vt 0.4513 0.7064 0.0000
vt 0.4513 0.7876 0.0000
vt 0.5487 0.7064 0.0000
vt 0.5487 0.7876 0.0000
vt 0.4673 0.7482 0.0000
vt 0.5327 0.7482 0.0000
vt 0.7500 0.0000 1.0000
vt 0.9167 0.0000 1.0000
vt 0.9167 1.0000 1.0000
vt 0.7500 1.0000 1.0000
vt 0.0833 0.0000 1.0000
vt 0.2500 0.0000 1.0000
vt 0.2500 1.0000 1.0000
vt 0.0833 1.0000 1.0000
vt 0.4167 0.0000 1.0000
vt 0.4167 1.0000 1.0000
vt 0.5833 0.0000 1.0000
vt 0.5833 1.0000 1.0000
# 56 texture coords

g Plane003
usemtl Material__26
s off
f 1/1/1 2/2/1 3/3/1 4/4/1 
f 5/5/1 6/6/1 7/7/1 8/8/1 
f 9/9/2 10/10/2 11/11/2 12/12/2 
f 13/13/3 14/14/3 15/15/3 16/16/3 
f 12/12/2 11/11/2 17/17/2 18/18/2 
f 19/19/2 18/18/2 17/17/2 20/20/2 
f 21/21/2 22/22/2 23/23/2 24/24/2 
f 25/25/1 26/26/1 27/27/1 28/28/1 
f 22/22/2 19/19/2 20/20/2 23/23/2 
f 29/29/3 30/30/3 31/31/3 32/32/3 
f 33/33/4 34/34/4 4/4/4 3/3/4 
f 24/24/1 23/23/1 6/6/1 5/5/1 
f 35/35/4 36/36/4 8/8/4 7/7/4 
f 23/23/1 20/20/1 1/1/1 6/6/1 
f 34/34/4 35/35/4 7/7/4 4/4/4 
f 37/37/4 38/38/4 26/26/4 25/25/4 
f 11/11/1 10/10/1 28/28/1 27/27/1 
f 38/38/4 33/33/4 3/3/4 26/26/4 
f 17/17/1 11/11/1 27/27/1 2/2/1 
f 7/7/5 6/6/5 13/13/5 16/16/5 
f 6/6/6 1/1/6 14/14/6 13/13/6 
f 1/1/7 4/4/7 15/15/7 14/14/7 
f 4/4/8 7/7/8 16/16/8 15/15/8 
f 27/27/7 26/26/7 29/29/7 32/32/7 
f 26/26/8 3/3/8 30/30/8 29/29/8 
f 3/3/9 2/2/9 31/31/9 30/30/9 
f 2/2/6 27/27/6 32/32/6 31/31/6 
f 17/17/1 2/2/1 39/39/1 40/40/1 
f 2/2/1 1/1/1 41/41/1 39/39/1 
f 1/1/10 20/20/10 42/42/10 41/41/10 
f 20/20/3 17/17/3 40/40/3 42/42/3 
f 40/40/11 39/39/11 43/43/11 
f 41/41/12 42/42/12 44/44/12 
f 40/40/13 43/43/13 44/44/13 42/42/13 
f 44/44/14 43/43/14 39/39/14 41/41/14 
usemtl Material__25
s 8
f 45/45/15 46/46/16 47/47/16 48/48/15 
f 49/49/17 50/50/18 51/51/18 52/52/17 
f 50/50/18 53/53/19 54/54/19 51/51/18 
f 53/53/19 55/55/20 56/56/20 54/54/19 
f 55/55/20 45/45/15 48/48/15 56/56/20 
f 57/45/21 58/46/22 59/47/22 60/48/21 
f 61/49/17 62/50/23 63/51/23 64/52/17 
f 62/50/23 65/53/19 66/54/19 63/51/23 
f 65/53/19 67/55/20 68/56/20 66/54/19 
f 67/55/20 57/45/21 60/48/21 68/56/20 
f 69/45/15 70/46/16 71/47/22 72/48/15 
f 73/49/17 74/50/18 75/51/18 76/52/17 
f 74/50/18 77/53/19 78/54/24 75/51/18 
f 77/53/19 79/55/20 80/56/20 78/54/24 
f 79/55/20 69/45/15 72/48/15 80/56/20 
f 81/45/15 82/46/16 83/47/16 84/48/15 
f 85/49/17 86/50/18 87/51/18 88/52/17 
f 86/50/18 89/53/19 90/54/19 87/51/18 
f 89/53/19 91/55/20 92/56/20 90/54/19 
f 91/55/20 81/45/15 84/48/15 92/56/20 
f 93/45/21 94/46/22 95/47/22 96/48/21 
f 97/49/17 98/50/23 99/51/23 100/52/17 
f 98/50/23 101/53/19 102/54/19 99/51/23 
f 101/53/19 103/55/20 104/56/20 102/54/19 
f 103/55/20 93/45/21 96/48/21 104/56/20 
f 105/45/15 106/46/16 107/47/22 108/48/15 
f 109/49/17 110/50/18 111/51/18 112/52/17 
f 110/50/18 113/53/19 114/54/24 111/51/18 
f 113/53/19 115/55/20 116/56/20 114/54/24 
f 115/55/20 105/45/15 108/48/15 116/56/20 
# 63 polygons - 2 triangles

