# 3ds Max Wavefront OBJ Exporter v0.97b - (c)2007 guruware
# File Created: 17.02.2013 18:56:37

mtllib seina_kulma.mtl

#
# object Plane025
#

v  340.0102 55.1809 -305.0502
v  340.0102 55.1809 -314.9498
v  340.0102 26.4214 -314.9498
v  340.0102 26.4214 -305.0502
v  340.0102 55.1809 -270.0000
v  340.0102 55.1809 -275.1627
v  340.0102 26.4214 -275.1627
v  340.0102 26.4214 -270.0000
v  320.0000 90.0000 -340.0000
v  340.0102 74.7000 -350.0000
v  340.0102 74.7000 -344.8373
v  348.6088 46.2798 -275.2180
v  348.6088 46.2798 -304.9948
v  348.6088 35.3224 -304.9948
v  348.6088 35.3224 -275.2180
v  340.0102 74.7000 -314.9498
v  320.0000 90.0000 -314.9498
v  320.0000 90.0000 -305.0502
v  340.0102 74.7000 -305.0502
v  320.0000 90.0000 -270.0000
v  320.0000 90.0000 -275.1627
v  340.0102 74.7000 -275.1627
v  340.0102 74.7000 -270.0000
v  340.0102 26.4214 -350.0000
v  340.0102 26.4214 -344.8373
v  340.0102 55.1809 -344.8373
v  340.0102 55.1809 -350.0000
v  348.6088 35.3224 -344.7819
v  348.6088 35.3224 -315.0052
v  348.6088 46.2798 -315.0052
v  348.6088 46.2799 -344.7819
v  330.0000 -0.0000 -314.9498
v  330.0000 -0.0000 -305.0502
v  330.0000 -0.0000 -275.1627
v  330.0000 -0.0000 -270.0000
v  330.0000 -0.0000 -350.0000
v  330.0000 -0.0000 -344.8373
v  340.0102 63.5779 -313.8940
v  340.0102 70.8823 -313.8940
v  340.0102 63.5779 -306.1060
v  340.0102 70.8823 -306.1060
v  334.7887 67.3424 -312.6183
v  334.7887 67.3424 -307.3818
v  345.2307 33.5928 -305.3621
v  349.0019 35.7701 -305.3621
v  349.0019 35.7701 -274.5116
v  345.2307 33.5928 -274.5116
v  349.0019 40.1247 -305.3621
v  345.2307 42.3020 -305.3621
v  345.2307 42.3020 -274.5116
v  349.0019 40.1247 -274.5116
v  341.4596 40.1247 -305.3621
v  341.4596 40.1247 -274.5116
v  341.4596 35.7701 -305.3621
v  341.4596 35.7701 -274.5116
v  346.6354 41.7897 -305.3621
v  349.1021 43.2138 -305.3621
v  349.1021 43.2138 -274.5116
v  346.6354 41.7897 -274.5116
v  349.1021 46.0620 -305.3621
v  346.6354 47.4861 -305.3621
v  346.6354 47.4861 -274.5116
v  349.1021 46.0620 -274.5116
v  344.1688 46.0620 -305.3621
v  344.1688 46.0620 -274.5116
v  344.1688 43.2138 -305.3621
v  344.1688 43.2138 -274.5116
v  346.6354 41.7897 -345.4329
v  349.1021 43.2138 -345.4329
v  349.1021 43.2138 -314.5824
v  346.6354 41.7897 -314.5824
v  349.1021 46.0620 -345.4329
v  346.6354 47.4861 -345.4329
v  346.6354 47.4861 -314.5824
v  349.1021 46.0620 -314.5824
v  344.1688 46.0620 -345.4329
v  344.1688 46.0620 -314.5824
v  344.1688 43.2138 -345.4329
v  344.1688 43.2138 -314.5824
v  345.2307 33.5928 -345.4329
v  349.0019 35.7701 -345.4329
v  349.0019 35.7701 -314.5824
v  345.2307 33.5928 -314.5824
v  349.0019 40.1247 -345.4329
v  345.2307 42.3020 -345.4329
v  345.2307 42.3020 -314.5824
v  349.0019 40.1247 -314.5824
v  341.4596 40.1247 -345.4329
v  341.4596 40.1247 -314.5824
v  341.4596 35.7701 -345.4329
v  341.4596 35.7701 -314.5824
v  344.2167 30.9430 -345.4329
v  345.5632 31.7204 -345.4329
v  345.5632 31.7204 -314.5824
v  344.2167 30.9430 -314.5824
v  345.5632 33.2753 -345.4329
v  344.2167 34.0527 -345.4329
v  344.2167 34.0527 -314.5824
v  345.5632 33.2753 -314.5824
v  342.8701 33.2753 -345.4329
v  342.8701 33.2753 -314.5824
v  342.8701 31.7204 -345.4329
v  342.8701 31.7204 -314.5824
v  344.2167 30.9430 -305.3621
v  345.5632 31.7204 -305.3621
v  345.5632 31.7204 -274.5116
v  344.2167 30.9430 -274.5116
v  345.5632 33.2753 -305.3621
v  344.2167 34.0527 -305.3621
v  344.2167 34.0527 -274.5116
v  345.5632 33.2753 -274.5116
v  342.8701 33.2753 -305.3621
v  342.8701 33.2753 -274.5116
v  342.8701 31.7204 -305.3621
v  342.8701 31.7204 -274.5116
v  294.9498 55.1809 -360.0102
v  285.0502 55.1809 -360.0102
v  285.0502 26.4214 -360.0102
v  294.9498 26.4214 -360.0102
v  330.0000 55.1809 -360.0102
v  324.8373 55.1809 -360.0102
v  324.8373 26.4214 -360.0102
v  330.0000 26.4214 -360.0102
v  250.0000 90.0000 -340.0000
v  250.0000 74.7000 -360.0102
v  255.1627 74.7000 -360.0102
v  255.1627 90.0000 -340.0000
v  324.7820 46.2799 -368.6088
v  295.0052 46.2799 -368.6088
v  295.0052 35.3224 -368.6088
v  324.7820 35.3224 -368.6088
v  285.0502 74.7000 -360.0102
v  285.0502 90.0000 -340.0000
v  294.9498 90.0000 -340.0000
v  294.9498 74.7000 -360.0102
v  330.0000 74.7000 -360.0102
v  324.8373 74.7000 -360.0102
v  250.0000 26.4214 -360.0102
v  255.1627 26.4214 -360.0102
v  255.1627 55.1809 -360.0102
v  250.0000 55.1809 -360.0102
v  255.2181 35.3224 -368.6088
v  284.9948 35.3224 -368.6088
v  284.9948 46.2799 -368.6088
v  255.2181 46.2799 -368.6088
v  285.0502 -0.0000 -350.0000
v  294.9498 -0.0000 -350.0000
v  324.8373 -0.0000 -350.0000
v  250.0000 -0.0000 -350.0000
v  255.1627 -0.0000 -350.0000
v  286.1060 63.5779 -360.0102
v  286.1060 70.8824 -360.0102
v  293.8940 63.5779 -360.0102
v  293.8940 70.8824 -360.0102
v  287.3818 67.3424 -354.7887
v  292.6183 67.3424 -354.7887
v  294.6379 33.5928 -365.2308
v  294.6379 35.7701 -369.0020
v  325.4884 35.7701 -369.0019
v  325.4884 33.5928 -365.2308
v  294.6379 40.1247 -369.0020
v  294.6379 42.3020 -365.2308
v  325.4884 42.3020 -365.2308
v  325.4884 40.1247 -369.0019
v  294.6379 40.1247 -361.4596
v  325.4884 40.1247 -361.4596
v  294.6379 35.7701 -361.4596
v  325.4884 35.7701 -361.4596
v  294.6379 41.7897 -366.6354
v  294.6379 43.2138 -369.1021
v  325.4884 43.2138 -369.1021
v  325.4884 41.7897 -366.6354
v  294.6379 46.0620 -369.1021
v  294.6379 47.4861 -366.6354
v  325.4884 47.4861 -366.6354
v  325.4884 46.0620 -369.1021
v  294.6379 46.0620 -364.1688
v  325.4884 46.0620 -364.1688
v  294.6379 43.2138 -364.1688
v  325.4884 43.2138 -364.1688
v  254.5671 41.7897 -366.6354
v  254.5671 43.2138 -369.1021
v  285.4176 43.2138 -369.1021
v  285.4176 41.7897 -366.6354
v  254.5671 46.0620 -369.1021
v  254.5671 47.4861 -366.6354
v  285.4176 47.4861 -366.6354
v  285.4176 46.0620 -369.1021
v  254.5671 46.0620 -364.1688
v  285.4176 46.0620 -364.1688
v  254.5671 43.2138 -364.1688
v  285.4176 43.2138 -364.1688
v  254.5671 33.5928 -365.2307
v  254.5671 35.7701 -369.0019
v  285.4176 35.7701 -369.0019
v  285.4176 33.5928 -365.2307
v  254.5671 40.1247 -369.0019
v  254.5671 42.3020 -365.2307
v  285.4176 42.3020 -365.2307
v  285.4176 40.1247 -369.0019
v  254.5671 40.1247 -361.4596
v  285.4176 40.1247 -361.4596
v  254.5671 35.7701 -361.4596
v  285.4176 35.7701 -361.4596
v  254.5671 30.9430 -364.2167
v  254.5671 31.7204 -365.5632
v  285.4176 31.7204 -365.5633
v  285.4176 30.9430 -364.2167
v  254.5671 33.2753 -365.5632
v  254.5671 34.0527 -364.2167
v  285.4176 34.0527 -364.2167
v  285.4176 33.2753 -365.5633
v  254.5671 33.2753 -362.8701
v  285.4176 33.2753 -362.8701
v  254.5671 31.7204 -362.8701
v  285.4176 31.7204 -362.8701
v  294.6379 30.9430 -364.2167
v  294.6379 31.7204 -365.5633
v  325.4884 31.7204 -365.5633
v  325.4884 30.9430 -364.2167
v  294.6379 33.2753 -365.5633
v  294.6379 34.0527 -364.2167
v  325.4884 34.0527 -364.2167
v  325.4884 33.2753 -365.5633
v  294.6379 33.2753 -362.8701
v  325.4884 33.2753 -362.8701
v  294.6379 31.7204 -362.8701
v  325.4884 31.7204 -362.8701
# 228 vertices

vn -1.0000 -0.0000 -0.0000
vn -0.6074 -0.7944 -0.0000
vn -1.0000 0.0000 -0.0000
vn -0.9351 0.3543 -0.0000
vn -0.0064 -0.0000 -1.0000
vn -0.7192 -0.6948 -0.0000
vn -0.0064 0.0000 1.0000
vn -0.7192 0.6948 -0.0000
vn -0.0064 -0.0000 1.0000
vn -1.0000 -0.0000 0.0000
vn -0.2373 -0.0000 -0.9714
vn -0.2373 0.0000 0.9714
vn -0.5612 0.8277 -0.0000
vn -0.5848 -0.8112 -0.0000
vn 0.0000 -1.0000 -0.0000
vn 0.5000 -0.8660 0.0000
vn 0.5000 0.8660 0.0000
vn -0.0000 1.0000 0.0000
vn -0.8660 0.5000 -0.0000
vn -0.8660 -0.5000 -0.0000
vn -0.0000 -1.0000 -0.0000
vn 0.5000 -0.8660 -0.0000
vn 0.0000 1.0000 0.0000
vn -0.8660 0.5000 0.0000
vn -0.0000 -0.0000 1.0000
vn -0.0000 -0.7944 0.6074
vn -0.0000 0.0000 1.0000
vn 0.0000 -0.7944 0.6074
vn -0.0000 0.3543 0.9351
vn 0.0000 0.3543 0.9351
vn -1.0000 -0.0000 0.0064
vn -0.0000 -0.6948 0.7192
vn 1.0000 0.0000 0.0064
vn -0.0000 0.6948 0.7192
vn 1.0000 -0.0000 0.0064
vn 0.0000 -0.0000 1.0000
vn -0.9714 -0.0000 0.2373
vn 0.9714 0.0000 0.2373
vn -0.0000 0.8277 0.5612
vn -0.0000 -0.8112 0.5848
vn 0.0000 -1.0000 0.0000
vn 0.0000 -0.8660 -0.5000
vn -0.0000 -0.8660 -0.5000
vn -0.0000 0.8660 -0.5000
vn 0.0000 1.0000 -0.0000
vn 0.0000 0.8660 -0.5000
vn -0.0000 0.5000 0.8660
vn 0.0000 0.5000 0.8660
vn 0.0000 -0.5000 0.8660
vn -0.0000 -0.5000 0.8660
vn -0.0000 -1.0000 0.0000
vn -0.0000 1.0000 -0.0000
vn -0.7071 -0.0000 0.7071
vn -0.6392 0.2422 0.7299
vn -0.6252 0.2369 0.7436
vn -0.6830 0.2588 0.6830
vn -0.4135 -0.8111 0.4135
# 57 vertex normals

vt 0.5619 0.6131 0.0000
vt 0.4381 0.6131 0.0000
vt 0.4381 0.2936 0.0000
vt 0.5619 0.2936 0.0000
vt 1.0000 0.6131 0.0000
vt 0.9355 0.6131 0.0000
vt 0.9355 0.2936 0.0000
vt 1.0000 0.2936 0.0000
vt 0.0323 1.0000 0.0000
vt 0.0000 0.8300 0.0000
vt 0.0645 0.8300 0.0000
vt 0.9107 0.5142 0.0000
vt 0.5866 0.5142 0.0000
vt 0.5866 0.3925 0.0000
vt 0.9107 0.3925 0.0000
vt 0.4381 0.8300 0.0000
vt 0.4381 1.0000 0.0000
vt 0.5619 1.0000 0.0000
vt 0.5619 0.8300 0.0000
vt 1.0000 1.0000 0.0000
vt 0.9355 1.0000 0.0000
vt 0.9355 0.8300 0.0000
vt 1.0000 0.8300 0.0000
vt 0.0000 0.2936 0.0000
vt 0.0645 0.2936 0.0000
vt 0.0645 0.6131 0.0000
vt 0.0000 0.6131 0.0000
vt 0.0933 0.3925 0.0000
vt 0.4093 0.3925 0.0000
vt 0.4093 0.5142 0.0000
vt 0.0933 0.5142 0.0000
vt 0.4381 0.0000 0.0000
vt 0.5619 0.0000 0.0000
vt 0.9355 0.0000 0.0000
vt 1.0000 0.0000 0.0000
vt 0.0000 0.0000 0.0000
vt 0.0645 0.0000 0.0000
vt 0.4513 0.7064 0.0000
vt 0.4513 0.7876 0.0000
vt 0.5487 0.7064 0.0000
vt 0.5487 0.7876 0.0000
vt 0.4673 0.7482 0.0000
vt 0.5327 0.7482 0.0000
vt 0.7500 0.0000 1.0000
vt 0.9167 0.0000 1.0000
vt 0.9167 1.0000 1.0000
vt 0.7500 1.0000 1.0000
vt 0.0833 0.0000 1.0000
vt 0.2500 0.0000 1.0000
vt 0.2500 1.0000 1.0000
vt 0.0833 1.0000 1.0000
vt 0.4167 0.0000 1.0000
vt 0.4167 1.0000 1.0000
vt 0.5833 0.0000 1.0000
vt 0.5833 1.0000 1.0000
vt 0.0000 1.0000 0.0000
vt 0.0645 1.0000 0.0000
vt 0.9677 1.0000 0.0000
vt -0.0006 0.9985 0.0000
vt -0.0006 0.8318 0.0000
vt 0.5951 0.8318 0.0000
vt 0.5951 0.9985 0.0000
vt 0.9994 0.8318 0.0000
vt 0.9994 0.9985 0.0000
vt 0.0414 0.0000 0.0000
vt 0.0666 0.2953 0.0000
vt 0.0162 0.2953 0.0000
# 67 texture coords

g Plane025
usemtl Material__26
s off
f 1/1/1 2/2/1 3/3/1 4/4/1 
f 5/5/1 6/6/1 7/7/1 8/8/1 
f 9/9/2 10/10/2 11/11/2 
f 12/12/3 13/13/3 14/14/3 15/15/3 
f 9/9/2 11/11/2 16/16/2 17/17/2 
f 18/18/2 17/17/2 16/16/2 19/19/2 
f 20/20/2 21/21/2 22/22/2 23/23/2 
f 24/24/1 25/25/1 26/26/1 27/27/1 
f 21/21/2 18/18/2 19/19/2 22/22/2 
f 28/28/3 29/29/3 30/30/3 31/31/3 
f 32/32/4 33/33/4 4/4/4 3/3/4 
f 23/23/1 22/22/1 6/6/1 5/5/1 
f 34/34/4 35/35/4 8/8/4 7/7/4 
f 22/22/1 19/19/1 1/1/1 6/6/1 
f 33/33/4 34/34/4 7/7/4 4/4/4 
f 36/36/4 37/37/4 25/25/4 24/24/4 
f 11/11/1 10/10/1 27/27/1 26/26/1 
f 37/37/4 32/32/4 3/3/4 25/25/4 
f 16/16/1 11/11/1 26/26/1 2/2/1 
f 7/7/5 6/6/5 12/12/5 15/15/5 
f 6/6/6 1/1/6 13/13/6 12/12/6 
f 1/1/7 4/4/7 14/14/7 13/13/7 
f 4/4/8 7/7/8 15/15/8 14/14/8 
f 26/26/9 25/25/9 28/28/9 31/31/9 
f 25/25/8 3/3/8 29/29/8 28/28/8 
f 3/3/5 2/2/5 30/30/5 29/29/5 
f 2/2/6 26/26/6 31/31/6 30/30/6 
f 16/16/1 2/2/1 38/38/1 39/39/1 
f 2/2/1 1/1/1 40/40/1 38/38/1 
f 1/1/10 19/19/10 41/41/10 40/40/10 
f 19/19/3 16/16/3 39/39/3 41/41/3 
f 39/39/11 38/38/11 42/42/11 
f 40/40/12 41/41/12 43/43/12 
f 39/39/13 42/42/13 43/43/13 41/41/13 
f 43/43/14 42/42/14 38/38/14 40/40/14 
usemtl Material__25
s 8
f 44/44/15 45/45/16 46/46/16 47/47/15 
f 48/48/17 49/49/18 50/50/18 51/51/17 
f 49/49/18 52/52/19 53/53/19 50/50/18 
f 52/52/19 54/54/20 55/55/20 53/53/19 
f 54/54/20 44/44/15 47/47/15 55/55/20 
f 56/44/21 57/45/22 58/46/22 59/47/21 
f 60/48/17 61/49/18 62/50/18 63/51/17 
f 61/49/18 64/52/19 65/53/19 62/50/18 
f 64/52/19 66/54/20 67/55/20 65/53/19 
f 66/54/20 56/44/21 59/47/21 67/55/20 
f 68/44/21 69/45/22 70/46/22 71/47/21 
f 72/48/17 73/49/18 74/50/18 75/51/17 
f 73/49/18 76/52/19 77/53/19 74/50/18 
f 76/52/19 78/54/20 79/55/20 77/53/19 
f 78/54/20 68/44/21 71/47/21 79/55/20 
f 80/44/15 81/45/16 82/46/16 83/47/15 
f 84/48/17 85/49/18 86/50/18 87/51/17 
f 85/49/18 88/52/19 89/53/19 86/50/18 
f 88/52/19 90/54/20 91/55/20 89/53/19 
f 90/54/20 80/44/15 83/47/15 91/55/20 
f 92/44/21 93/45/22 94/46/16 95/47/21 
f 96/48/17 97/49/18 98/50/23 99/51/17 
f 97/49/18 100/52/19 101/53/24 98/50/23 
f 100/52/19 102/54/20 103/55/20 101/53/24 
f 102/54/20 92/44/21 95/47/21 103/55/20 
f 104/44/21 105/45/22 106/46/16 107/47/21 
f 108/48/17 109/49/18 110/50/23 111/51/17 
f 109/49/18 112/52/19 113/53/24 110/50/23 
f 112/52/19 114/54/20 115/55/20 113/53/24 
f 114/54/20 104/44/21 107/47/21 115/55/20 
usemtl Material__26
s off
f 116/1/25 117/2/25 118/3/25 119/4/25 
f 120/5/25 121/6/25 122/7/25 123/8/25 
f 124/56/26 125/10/26 126/11/26 127/57/26 
f 128/12/27 129/13/27 130/14/27 131/15/27 
f 127/57/26 126/11/26 132/16/26 133/17/26 
f 134/18/26 133/17/26 132/16/26 135/19/26 
f 136/23/28 9/58/28 137/22/28 
f 138/24/25 139/25/25 140/26/25 141/27/25 
f 9/58/28 134/18/28 135/19/28 137/22/28 
f 142/28/27 143/29/27 144/30/27 145/31/27 
f 146/32/29 147/33/29 119/4/29 118/3/29 
f 136/23/25 137/22/25 121/6/25 120/5/25 
f 148/34/29 36/35/29 123/8/29 122/7/29 
f 137/22/25 135/19/25 116/1/25 121/6/25 
f 147/33/29 148/34/29 122/7/29 119/4/29 
f 149/36/30 150/37/30 139/25/30 138/24/30 
f 126/11/25 125/10/25 141/27/25 140/26/25 
f 150/37/29 146/32/29 118/3/29 139/25/29 
f 132/16/25 126/11/25 140/26/25 117/2/25 
f 122/7/31 121/6/31 128/12/31 131/15/31 
f 121/6/32 116/1/32 129/13/32 128/12/32 
f 116/1/33 119/4/33 130/14/33 129/13/33 
f 119/4/34 122/7/34 131/15/34 130/14/34 
f 140/26/35 139/25/35 142/28/35 145/31/35 
f 139/25/34 118/3/34 143/29/34 142/28/34 
f 118/3/31 117/2/31 144/30/31 143/29/31 
f 117/2/32 140/26/32 145/31/32 144/30/32 
f 132/16/25 117/2/25 151/38/25 152/39/25 
f 117/2/25 116/1/25 153/40/25 151/38/25 
f 116/1/36 135/19/36 154/41/36 153/40/36 
f 135/19/27 132/16/27 152/39/27 154/41/27 
f 152/39/37 151/38/37 155/42/37 
f 153/40/38 154/41/38 156/43/38 
f 152/39/39 155/42/39 156/43/39 154/41/39 
f 156/43/40 155/42/40 151/38/40 153/40/40 
usemtl Material__25
s 8
f 157/44/41 158/45/42 159/46/43 160/47/21 
f 161/48/44 162/49/18 163/50/45 164/51/46 
f 162/49/18 165/52/47 166/53/48 163/50/45 
f 165/52/47 167/54/49 168/55/50 166/53/48 
f 167/54/49 157/44/41 160/47/21 168/55/50 
f 169/44/51 170/45/43 171/46/43 172/47/21 
f 173/48/44 174/49/18 175/50/45 176/51/44 
f 174/49/18 177/52/47 178/53/48 175/50/45 
f 177/52/47 179/54/50 180/55/50 178/53/48 
f 179/54/50 169/44/51 172/47/21 180/55/50 
f 181/44/21 182/45/43 183/46/43 184/47/41 
f 185/48/46 186/49/45 187/50/52 188/51/44 
f 186/49/45 189/52/48 190/53/47 187/50/52 
f 189/52/48 191/54/49 192/55/50 190/53/47 
f 191/54/49 181/44/21 184/47/41 192/55/50 
f 193/44/15 194/45/42 195/46/42 196/47/41 
f 197/48/46 198/49/23 199/50/23 200/51/46 
f 198/49/23 201/52/48 202/53/48 199/50/23 
f 201/52/48 203/54/49 204/55/49 202/53/48 
f 203/54/49 193/44/15 196/47/41 204/55/49 
f 205/44/51 206/45/43 207/46/43 208/47/21 
f 209/48/46 210/49/23 211/50/45 212/51/44 
f 210/49/23 213/52/47 214/53/48 211/50/45 
f 213/52/47 215/54/49 216/55/50 214/53/48 
f 215/54/49 205/44/51 208/47/21 216/55/50 
f 217/44/41 218/45/42 219/46/43 220/47/21 
f 221/48/46 222/49/23 223/50/23 224/51/44 
f 222/49/23 225/52/48 226/53/48 223/50/23 
f 225/52/48 227/54/49 228/55/50 226/53/48 
f 227/54/49 217/44/41 220/47/21 228/55/50 
usemtl Material__26
s 1
f 123/59/53 24/60/53 27/61/53 120/62/53 
f 120/62/53 27/61/53 10/63/53 136/64/53 
s 2
f 36/65/54 36/65/55 24/66/56 123/67/56 
f 10/11/57 9/8/27 9/50/57 136/10/57 
# 128 polygons - 6 triangles

